<?xml version="1.0" encoding="iso-8859-1"?>
<!-- Generator: Adobe Illustrator 19.0.0, SVG Export Plug-In . SVG Version: 6.00 Build 0)  -->
<svg version="1.1" id="Layer_1" xmlns="http://www.w3.org/2000/svg" xmlns:xlink="http://www.w3.org/1999/xlink" x="0px" y="0px"
	 viewBox="0 0 313 480" style="enable-background:new 0 0 313 480;" xml:space="preserve">
<g id="XMLID_25_">
	<path id="XMLID_23_" style="fill:#D4FF45;" d="M303.726,69.243h-21.204c-1.739,0-2.937-1.414-2.649-3.123l3.711-20.592
		c0.262-1.718-0.928-3.134-2.674-3.134h-5.07c-1.739,0-3.399,1.416-3.692,3.134l-3.668,20.592c-0.343,1.709-1.972,3.123-3.747,3.123
		h-20.589c-1.748,0-3.694,1.391-4.019,3.074l-0.873,5.021c-0.306,1.912,0.675,3.052,2.377,3.052h21.121
		c1.741,0,2.904,1.396,2.634,3.127l-3.722,20.985c-0.321,1.693,0.838,3.072,2.674,3.072h4.982c1.737,0,3.474-1.38,3.747-3.072
		l3.7-20.985c0.343-1.731,2.008-3.127,3.786-3.127h20.617c1.719,0,3.656-1.083,3.99-3.052l0.893-5.021
		C306.426,70.533,305.525,69.243,303.726,69.243"/>
	<path id="XMLID_22_" style="fill:#D4FF45;" d="M85.366,59.901c-18.707,4.845-33.794,4.232-42.386-1.905
		C20.972,41.84,37.78,9.637,43.736,0c-10.73,11.743-21.448,23.614-29.79,36.415C0.824,56.527-4.809,78.588,4.12,92.769
		c15.934,25.563,54.145,13.772,78.546,3.473L309.073,0.939L85.366,59.901z"/>
	<rect id="XMLID_21_" x="-0.213" y="463.889" style="fill:#D4FF45;" width="313.305" height="16.111"/>
	<rect id="XMLID_20_" x="-0.213" y="148.171" style="fill:#D4FF45;" width="313.305" height="16.325"/>
	<path id="XMLID_46_" style="fill:#D4FF45;" d="M313.068,255.146v-11.972c0-6.005-0.858-11.734-2.586-17.133
		c-1.737-5.425-4.305-10.159-7.691-14.226c-3.39-4.075-7.729-7.29-12.999-9.692c-5.295-2.408-11.394-3.623-18.329-3.623
		c-7.396,0-13.764,1.085-19.12,3.273c-5.35,2.172-9.81,5.16-13.35,8.92c-3.538,3.751-6.181,8.186-7.909,13.297
		c-1.737,5.114-2.594,10.539-2.594,16.261v83.946c0,5.711,0.857,11.117,2.594,16.231c1.728,5.132,4.371,9.573,7.909,13.315
		c3.54,3.782,7.999,6.733,13.35,8.931c5.356,2.159,11.724,3.262,19.12,3.262c6.935,0,13.034-1.103,18.329-3.262
		c5.27-2.197,9.61-5.149,12.999-8.931c3.386-3.742,5.954-8.183,7.691-13.315c1.728-5.114,2.586-10.521,2.586-16.231v-18.74h-28.038
		v19.633c0,5.279-0.976,9.335-2.939,12.193c-1.966,2.853-5.505,4.278-10.629,4.278c-5.734,0-9.663-1.462-11.763-4.388
		c-2.126-2.942-3.171-7.484-3.171-13.666v-82.577c0-6.168,1.046-10.72,3.171-13.655c2.1-2.933,6.029-4.395,11.763-4.395
		c3.612,0,6.783,1.537,9.494,4.624c2.72,3.074,4.074,8.076,4.074,15.009v12.634H313.068z M25.336,363.674V261.907h0.451
		l35.74,101.767h24.439V200.743H60.62v93.219h-0.442l-34.165-93.219H0v162.931H25.336z"/>
	<path id="XMLID_43_" style="fill:#D4FF45;" d="M149.131,296.886c2.566,0,5.171-0.037,7.818-0.117
		c2.621-0.075,4.857-0.258,6.673-0.554l19.899,67.46h28.499l-23.752-73.785c2.414-1.047,4.793-2.56,7.117-4.507
		c2.34-1.969,4.465-4.543,6.347-7.791c1.876-3.228,3.397-7.18,4.527-11.851c1.134-4.651,1.682-10.298,1.682-16.921
		c0-17.289-3.982-29.636-11.979-36.993c-7.983-7.383-19.843-11.072-35.508-11.072h-39.354v162.92h28.033V296.886z M149.131,223.772
		h9.962c7.53,0,12.881,1.766,16.062,5.297c3.171,3.548,4.747,10.131,4.747,19.75c0,4.818-0.374,8.839-1.13,12.083
		c-0.765,3.22-1.953,5.831-3.617,7.791c-1.669,1.947-3.823,3.299-6.443,4.053c-2.654,0.754-5.862,1.122-9.619,1.122h-9.962V223.772z
		"/>
	<polygon id="XMLID_15_" style="fill:#D4FF45;" points="10.384,399.908 10.384,415.872 10.308,415.872 4.455,399.908 
		-0.002,399.908 -0.002,427.815 4.332,427.815 4.332,410.39 4.42,410.39 10.536,427.815 14.716,427.815 14.716,399.908 	"/>
	<rect id="XMLID_14_" x="27.027" y="399.908" style="fill:#D4FF45;" width="4.807" height="27.9"/>
	<polygon id="XMLID_13_" style="fill:#D4FF45;" points="43.92,427.807 43.92,399.908 48.737,399.908 48.737,410.233 48.801,410.233 
		53.843,399.908 58.647,399.908 53.456,410.308 59.297,427.807 54.421,427.807 50.501,414.82 50.424,414.82 48.737,417.912 
		48.737,427.807 	"/>
	<polygon id="XMLID_12_" style="fill:#D4FF45;" points="68.367,427.807 68.367,399.908 81.214,399.908 81.214,404.081 
		73.162,404.081 73.162,411.272 79.356,411.272 79.356,415.438 73.162,415.438 73.162,423.641 81.772,423.641 81.772,427.807 	"/>
	<polygon id="XMLID_11_" style="fill:#D4FF45;" points="96.871,403.438 100.655,403.438 100.655,411.319 108.555,411.319 
		108.555,415.099 100.655,415.099 100.655,422.987 96.871,422.987 96.871,415.099 88.962,415.099 88.962,411.319 96.871,411.319 	
		"/>
	<path id="XMLID_35_" style="fill:#D4FF45;" d="M136.253,427.814h-4.804v-27.907h6.739c2.678,0,4.719,0.644,6.09,1.894
		c1.359,1.27,2.047,3.374,2.047,6.344c0,1.122-0.094,2.088-0.283,2.887c-0.198,0.812-0.466,1.491-0.772,2.042
		c-0.334,0.536-0.702,0.994-1.09,1.325c-0.405,0.333-0.811,0.589-1.216,0.772l4.061,12.643h-4.874l-3.406-11.556
		c-0.321,0.035-0.699,0.071-1.152,0.093c-0.457,0.016-0.899,0.016-1.341,0.016V427.814z M136.253,412.43h1.7
		c0.66,0,1.207-0.071,1.651-0.199c0.442-0.123,0.811-0.351,1.115-0.682c0.271-0.348,0.479-0.79,0.603-1.334
		c0.128-0.562,0.207-1.251,0.207-2.069c0-1.654-0.286-2.776-0.811-3.383c-0.558-0.607-1.475-0.908-2.766-0.908h-1.7V412.43z"/>
	<path id="XMLID_8_" style="fill:#D4FF45;" d="M157.833,399.908h4.793v21.056c0,2.044,0.862,3.045,2.559,3.045
		c1.702,0,2.55-1.001,2.55-3.045v-21.056h4.814v20.873c0,2.419-0.662,4.256-1.953,5.518c-1.313,1.25-3.105,1.901-5.41,1.901
		c-2.3,0-4.105-0.651-5.398-1.901c-1.311-1.263-1.953-3.1-1.953-5.518V399.908z"/>
	<polygon id="XMLID_7_" style="fill:#D4FF45;" points="184.199,427.807 184.199,399.908 188.664,399.908 194.515,415.861 
		194.592,415.861 194.592,399.908 198.925,399.908 198.925,427.807 194.744,427.807 188.624,410.388 188.548,410.388 
		188.548,427.807 	"/>
	<path id="XMLID_6_" style="fill:#D4FF45;" d="M232.77,409.231v-2.17c0-1.178-0.226-2.044-0.692-2.576
		c-0.47-0.525-1.009-0.789-1.632-0.789c-0.99,0-1.649,0.245-2.008,0.754c-0.369,0.514-0.548,1.297-0.548,2.333v14.146
		c0,1.047,0.18,1.83,0.548,2.337c0.36,0.514,1.018,0.754,2.008,0.754c0.882,0,1.486-0.232,1.823-0.736
		c0.33-0.498,0.501-1.18,0.501-2.088v-3.359h4.804v3.22c0,0.957-0.148,1.894-0.442,2.776c-0.292,0.876-0.737,1.638-1.324,2.282
		c-0.576,0.624-1.31,1.14-2.227,1.526c-0.902,0.368-1.944,0.56-3.135,0.56c-1.262,0-2.359-0.192-3.272-0.56
		c-0.917-0.386-1.682-0.902-2.285-1.526c-0.604-0.644-1.046-1.405-1.35-2.282c-0.299-0.882-0.451-1.819-0.451-2.776v-14.391
		c0-0.966,0.152-1.905,0.451-2.77c0.305-0.873,0.747-1.638,1.35-2.287c0.603-0.637,1.368-1.151,2.285-1.519
		c0.913-0.386,2.01-0.562,3.272-0.562c1.191,0,2.232,0.194,3.135,0.618c0.917,0.423,1.651,0.966,2.227,1.654
		c0.587,0.697,1.033,1.509,1.324,2.444c0.294,0.922,0.442,1.905,0.442,2.924v2.062H232.77z"/>
	<polygon id="XMLID_5_" style="fill:#D4FF45;" points="249.236,427.807 249.236,399.908 254.038,399.908 254.038,423.641 
		261.582,423.641 261.582,427.807 	"/>
	<path id="XMLID_4_" style="fill:#D4FF45;" d="M271.544,399.908h4.802v21.056c0,2.044,0.853,3.045,2.559,3.045
		c1.7,0,2.548-1.001,2.548-3.045v-21.056h4.817v20.873c0,2.419-0.671,4.256-1.954,5.518c-1.313,1.25-3.115,1.901-5.411,1.901
		c-2.3,0-4.107-0.651-5.407-1.901c-1.304-1.263-1.954-3.1-1.954-5.518V399.908z"/>
	<path id="XMLID_26_" style="fill:#D4FF45;" d="M297.913,399.907h7.132c2.586,0,4.47,0.633,5.651,1.894
		c1.198,1.27,1.787,3.089,1.787,5.496c0,0.591-0.068,1.18-0.202,1.795c-0.128,0.6-0.319,1.158-0.603,1.676
		c-0.264,0.521-0.613,0.983-1.038,1.398c-0.424,0.403-0.925,0.725-1.488,0.953c1.245,0.543,2.188,1.334,2.858,2.366
		c0.682,1.028,1.009,2.445,1.009,4.245c0,1.162-0.129,2.238-0.405,3.22c-0.253,0.964-0.695,1.822-1.289,2.538
		c-0.587,0.717-1.361,1.29-2.324,1.7c-0.963,0.408-2.115,0.618-3.483,0.618h-7.603V399.907z M302.73,411.354h1.737
		c0.897,0,1.662-0.311,2.282-0.908c0.618-0.607,0.937-1.489,0.937-2.651c0-2.628-1.047-3.936-3.144-3.936h-1.812V411.354z
		 M302.73,423.869h2.01c1.295,0,2.19-0.368,2.709-1.083c0.521-0.717,0.776-1.782,0.776-3.22c0-1.425-0.295-2.501-0.899-3.215
		c-0.594-0.701-1.605-1.058-3.047-1.058h-1.55V423.869z"/>
</g>
</svg>
